<?xml version="1.0" standalone="no"?>
<!DOCTYPE svg PUBLIC "-//W3C//DTD SVG 20010904//EN"
 "http://www.w3.org/TR/2001/REC-SVG-20010904/DTD/svg10.dtd">
<svg version="1.0" xmlns="http://www.w3.org/2000/svg"
 width="512.000000pt" height="512.000000pt" viewBox="0 0 512.000000 512.000000"
 preserveAspectRatio="xMidYMid meet">

<g transform="translate(0.000000,512.000000) scale(0.100000,-0.100000)"
fill="#000000" stroke="none">
<path d="M1310 4814 c-549 -53 -900 -225 -1117 -549 -155 -232 -216 -529 -182
-895 20 -221 62 -368 160 -560 225 -444 603 -879 1504 -1733 198 -188 448
-427 555 -532 211 -206 256 -237 340 -237 88 0 125 27 405 302 143 141 418
406 610 591 814 780 1209 1255 1403 1687 155 343 174 829 47 1165 -138 365
-444 607 -899 712 -363 83 -670 58 -987 -80 -216 -94 -436 -266 -554 -433 -17
-23 -32 -42 -35 -42 -3 0 -18 19 -35 42 -46 66 -153 176 -231 238 -194 155
-432 260 -684 304 -90 15 -241 25 -300 20z m238 -405 c198 -31 411 -134 555
-269 133 -124 204 -245 255 -433 41 -151 91 -200 202 -200 104 0 167 56 195
174 46 194 123 329 259 456 216 201 533 310 821 282 340 -33 607 -154 744
-337 122 -161 172 -406 142 -687 -18 -162 -44 -255 -115 -400 -178 -363 -567
-820 -1285 -1507 -179 -172 -422 -407 -539 -522 l-212 -211 -143 141 c-78 77
-270 262 -427 409 -1042 984 -1469 1504 -1574 1920 -28 110 -41 322 -29 448
36 354 207 564 549 676 219 71 410 90 602 60z"/>
</g>
</svg>
